<svg id="Close_18" xmlns="http://www.w3.org/2000/svg" width="648" height="648" viewBox="0 0 648 648">
  <defs>
    <style>
      
        
      
    </style>
  </defs>
  <title>Close_18</title>
  
  <path d="M476.735,120.353L324,273.088,171.265,120.353a18,18,0,0,0-25.456,0l-25.456,25.456a18,18,0,0,0,0,25.456L273.088,324,120.353,476.735a18,18,0,0,0,0,25.456l25.456,25.456a18,18,0,0,0,25.456,0L324,374.912,476.735,527.647a18,18,0,0,0,25.456,0l25.456-25.456a18,18,0,0,0,0-25.456L374.912,324,527.647,171.265a18,18,0,0,0,0-25.456l-25.456-25.456A18,18,0,0,0,476.735,120.353Z"/>
</svg>
